<svg width="106" height="48" viewBox="0 0 106 48" fill="none" xmlns="http://www.w3.org/2000/svg">
<g clip-path="url(#clip0_0_4)">
<path d="M41.8074 35.4286L35.6741 26.5534L34.2473 24.4897L33.7221 23.7287L31.9024 21.0943L30.0827 23.7246L28.1306 26.5493L28.2381 26.7064L29.9503 29.1796L30.4755 29.9447L31.5674 31.5204H14.0692L22.8162 18.861L26.1785 23.7246L26.7038 24.4856L27.5268 23.2945L30.4755 19.0347L29.9503 18.2737L25.2273 11.4416C24.0652 9.75418 21.5714 9.75418 20.4092 11.4416L5.42146 33.1292C4.07736 35.073 5.46695 37.7239 7.83258 37.7239H26.4143C26.9643 37.7239 27.4896 37.5709 27.9445 37.2938C28.0396 37.2359 28.1306 37.1739 28.2174 37.1036C28.2629 37.0705 28.3084 37.0333 28.3498 36.9919C28.5276 36.8389 28.6889 36.6611 28.8254 36.4625L30.0827 34.6387L31.9024 32.0084L35.2275 36.8141C35.6245 37.3848 36.2697 37.7239 36.9645 37.7239H40.5997C41.7826 37.7239 42.4773 36.4005 41.8074 35.4286Z" fill="#6D319D"/>
<path d="M43.296 15.3911H35.8227L34.3918 17.4962L33.8541 18.2737L31.9021 21.0942L30.0824 23.7246L28.1303 26.5492L24.6936 31.5204L20.7026 37.2938L20.6034 37.4344L20.6158 37.4427C20.5496 37.5337 20.4876 37.6288 20.4214 37.7239H26.414C26.9641 37.7239 27.4893 37.5709 27.9442 37.2938C28.0393 37.2359 28.1303 37.1739 28.2172 37.1035C28.2627 37.0705 28.3082 37.0332 28.3495 36.9919C28.5274 36.8389 28.6887 36.661 28.8251 36.4625L30.0824 34.6387L30.9219 33.4186L31.9021 32.0084L32.2371 31.5204L32.6755 30.8876L33.8541 29.1837L35.6739 26.5534L37.6259 23.7287L41.803 17.6906C41.8526 17.6161 41.894 17.5417 41.9312 17.4631L43.296 15.3911Z" fill="#FBB03B"/>
</g>
<defs>
<clipPath id="clip0_0_4">
<rect width="38.4" height="27.5479" fill="white" transform="translate(4.896 10.176)"/>
</clipPath>
</defs>
</svg>
