<svg width="100" height="72" viewBox="0 0 100 72" fill="none" xmlns="http://www.w3.org/2000/svg">
<g clip-path="url(#clip0_1487_407)">
<path d="M96.1229 65.762L80.1509 42.6494L76.4352 37.2752L75.0674 35.2935L70.3286 28.433L65.5898 35.2827L60.5063 42.6387L60.7863 43.0479L65.2451 49.4884L66.6129 51.4809L69.4562 55.5843H23.8881L46.6668 22.6171L55.4228 35.2827L56.7906 37.2644L58.9339 34.1626L66.6129 23.0695L65.2451 21.0878L52.9457 3.29564C49.9193 -1.09855 43.425 -1.09855 40.3986 3.29564L1.36791 59.7738C-2.13236 64.8358 1.48638 71.7394 7.64686 71.7394H56.0367C57.4692 71.7394 58.8369 71.3409 60.0217 70.6193C60.2694 70.4685 60.5063 70.3069 60.7325 70.1239C60.8509 70.0377 60.9694 69.9408 61.0771 69.8331C61.5402 69.4346 61.9603 68.9715 62.3157 68.4545L65.5898 63.7049L70.3286 56.8551L78.9877 69.3699C80.0217 70.8562 81.7018 71.7394 83.5112 71.7394H92.978C96.0583 71.7394 97.8676 68.2929 96.1229 65.762Z" fill="#6D319D"/>
<path d="M99.9999 13.5811H80.5384L76.8119 19.063L75.4118 21.0878L70.3284 28.433L65.5895 35.2827L60.5061 42.6387L51.5561 55.5843L41.163 70.6193L40.9045 70.9855L40.9369 71.007C40.7645 71.244 40.603 71.4917 40.4307 71.7394H56.0365C57.4689 71.7394 58.8367 71.3409 60.0214 70.6193C60.2691 70.4685 60.5061 70.307 60.7322 70.1239C60.8507 70.0377 60.9692 69.9408 61.0769 69.8331C61.54 69.4346 61.96 68.9715 62.3154 68.4545L65.5895 63.7049L67.7758 60.5277L70.3284 56.8552L71.2007 55.5843L72.3423 53.9365L75.4118 49.4992L80.1506 42.6494L85.2341 35.2935L96.1119 19.5692C96.2411 19.3753 96.3488 19.1815 96.4457 18.9769L99.9999 13.5811Z" fill="#FBB03B"/>
</g>
<defs>
<clipPath id="clip0_1487_407">
<rect width="100" height="71.7394" fill="white"/>
</clipPath>
</defs>
</svg>
