<svg width="20" height="20" viewBox="0 0 20 20" fill="none" xmlns="http://www.w3.org/2000/svg">
<path fill-rule="evenodd" clip-rule="evenodd" d="M10.0001 1.875C12.154 1.8773 14.2191 2.73389 15.7423 4.25684C17.2655 5.78008 18.1228 7.84581 18.1251 10C18.1251 11.6068 17.6486 13.1776 16.756 14.5137C15.8632 15.8498 14.5941 16.8919 13.1095 17.5068C11.6249 18.1218 9.99116 18.2822 8.41513 17.9688C6.83906 17.6552 5.39127 16.8814 4.25498 15.7451C3.11868 14.6088 2.34485 13.1611 2.03134 11.585C1.71787 10.0089 1.87831 8.37524 2.49326 6.89062C3.10822 5.40598 4.15027 4.13693 5.48642 3.24414C6.82249 2.35152 8.39327 1.875 10.0001 1.875ZM13.1251 7.5C13.0431 7.5 12.9616 7.51552 12.8858 7.54688C12.81 7.57829 12.7408 7.62457 12.6827 7.68262L8.75009 11.6162L7.31748 10.1826C7.20022 10.0654 7.04091 10 6.87509 10C6.70926 10 6.54998 10.0654 6.43271 10.1826C6.31544 10.2999 6.25009 10.4591 6.25009 10.625C6.25009 10.7909 6.31544 10.9501 6.43271 11.0674L8.30771 12.9424C8.36575 13.0005 8.43498 13.0467 8.51084 13.0781C8.58664 13.1095 8.66805 13.126 8.75009 13.126C8.83217 13.126 8.91353 13.1095 8.98935 13.0781C9.06523 13.0467 9.13443 13.0005 9.19248 12.9424L13.5675 8.56738C13.6255 8.50932 13.6718 8.44011 13.7032 8.36426C13.7346 8.28845 13.7501 8.20705 13.7501 8.125C13.7501 8.04295 13.7346 7.96155 13.7032 7.88574C13.6718 7.80989 13.6255 7.74068 13.5675 7.68262C13.5094 7.62455 13.4402 7.5783 13.3644 7.54688C13.2885 7.51549 13.2071 7.50001 13.1251 7.5Z" fill="#6D319D"/>
</svg>
