<svg width="20" height="20" viewBox="0 0 20 20" fill="none" xmlns="http://www.w3.org/2000/svg">
<path fill-rule="evenodd" clip-rule="evenodd" d="M10.0001 1.875C12.154 1.8773 14.2191 2.73389 15.7423 4.25684C17.2655 5.78008 18.1228 7.84581 18.1251 10C18.1251 11.6068 17.6486 13.1776 16.7559 14.5137C15.8631 15.8498 14.5941 16.8919 13.1094 17.5068C11.6249 18.1218 9.99113 18.2822 8.4151 17.9688C6.83903 17.6552 5.39124 16.8814 4.25495 15.7451C3.11864 14.6088 2.34482 13.1611 2.03131 11.585C1.71784 10.0089 1.87828 8.37524 2.49323 6.89062C3.10819 5.40598 4.15024 4.13693 5.48639 3.24414C6.82246 2.35152 8.39324 1.875 10.0001 1.875ZM13.1251 7.5C13.043 7.5 12.9616 7.51552 12.8858 7.54688C12.81 7.57829 12.7407 7.62457 12.6827 7.68262L8.75006 11.6162L7.31745 10.1826C7.20019 10.0654 7.04088 10 6.87506 10C6.70923 10 6.54995 10.0654 6.43268 10.1826C6.31541 10.2999 6.25006 10.4591 6.25006 10.625C6.25006 10.7909 6.31541 10.9501 6.43268 11.0674L8.30768 12.9424C8.36572 13.0005 8.43495 13.0467 8.51081 13.0781C8.58661 13.1095 8.66802 13.126 8.75006 13.126C8.83214 13.126 8.9135 13.1095 8.98932 13.0781C9.0652 13.0467 9.1344 13.0005 9.19245 12.9424L13.5674 8.56738C13.6255 8.50932 13.6718 8.44011 13.7032 8.36426C13.7346 8.28845 13.7501 8.20705 13.7501 8.125C13.7501 8.04295 13.7346 7.96155 13.7032 7.88574C13.6718 7.80989 13.6255 7.74068 13.5674 7.68262C13.5094 7.62455 13.4402 7.5783 13.3643 7.54688C13.2885 7.51549 13.2071 7.50001 13.1251 7.5Z" fill="#B78ADB"/>
</svg>
