<svg width="32" height="23" viewBox="0 0 32 23" fill="none" xmlns="http://www.w3.org/2000/svg">
<g clip-path="url(#clip0_2503_33255)">
<path d="M30.7595 21.0438L25.6484 13.6478L24.4594 11.9281L24.0217 11.2939L22.5053 9.09855L20.9889 11.2905L19.3622 13.6444L19.4518 13.7753L20.8786 15.8363L21.3163 16.4739L22.2261 17.787H7.64435L14.9335 7.23748L17.7355 11.2905L18.1732 11.9246L18.859 10.932L21.3163 7.38223L20.8786 6.74809L16.9428 1.0546C15.9743 -0.351535 13.8962 -0.351535 12.9277 1.0546L0.437888 19.1276C-0.682198 20.7474 0.475798 22.9566 2.44715 22.9566H17.9319C18.3903 22.9566 18.828 22.8291 19.2071 22.5982C19.2864 22.5499 19.3622 22.4982 19.4345 22.4396C19.4725 22.4121 19.5104 22.381 19.5448 22.3466C19.693 22.2191 19.8274 22.0709 19.9412 21.9054L20.9889 20.3856L22.5053 18.1936L25.2762 22.1984C25.6071 22.674 26.1447 22.9566 26.7237 22.9566H29.7531C30.7388 22.9566 31.3178 21.8537 30.7595 21.0438Z" fill="#6D319D"/>
<path d="M32.0006 4.34521H25.7729L24.5805 6.09944L24.1324 6.74737L22.5057 9.09783L20.9893 11.2897L19.3626 13.6437L16.4986 17.7862L13.1728 22.5974L13.0901 22.7146L13.1005 22.7215C13.0453 22.7973 12.9936 22.8766 12.9385 22.9559H17.9323C18.3907 22.9559 18.8284 22.8284 19.2075 22.5974C19.2868 22.5492 19.3626 22.4975 19.435 22.4389C19.4729 22.4113 19.5108 22.3803 19.5453 22.3459C19.6935 22.2183 19.8279 22.0701 19.9416 21.9047L20.9893 20.3848L21.6889 19.3682L22.5057 18.1929L22.7849 17.7862L23.1502 17.2589L24.1324 15.839L25.6489 13.6471L27.2756 11.2932L30.7565 6.26142C30.7978 6.19939 30.8323 6.13735 30.8633 6.07187L32.0006 4.34521Z" fill="#FBB03B"/>
</g>
<defs>
<clipPath id="clip0_2503_33255">
<rect width="32" height="22.9566" fill="white"/>
</clipPath>
</defs>
</svg>
