<svg width="20" height="14" viewBox="0 0 20 14" fill="none" xmlns="http://www.w3.org/2000/svg">
<g clip-path="url(#clip0_2503_33706)">
<path d="M19.2247 12.8335L16.0303 8.32307L15.2871 7.27428L15.0136 6.88755L14.0658 5.54872L13.1181 6.88545L12.1014 8.32097L12.1574 8.40084L13.0491 9.65771L13.3227 10.0465L13.8913 10.8473H4.77772L9.33345 4.41375L11.0847 6.88545L11.3582 7.27218L11.7869 6.66687L13.3227 4.50203L13.0491 4.1153L10.5892 0.643147C9.98396 -0.214382 8.68509 -0.214382 8.07982 0.643147L0.27368 11.6649C-0.426374 12.6528 0.297374 14 1.52947 14H11.2074C11.4939 14 11.7675 13.9222 12.0044 13.7814C12.054 13.752 12.1014 13.7205 12.1466 13.6847C12.1703 13.6679 12.194 13.649 12.2155 13.628C12.3081 13.5502 12.3921 13.4598 12.4632 13.359L13.1181 12.4321L14.0658 11.0953L15.7976 13.5376C16.0044 13.8277 16.3405 14 16.7023 14H18.5957C19.2118 14 19.5736 13.3274 19.2247 12.8335Z" fill="#6D319D"/>
<path d="M19.9998 2.6499H16.1075L15.3622 3.71971L15.0822 4.11485L14.0655 5.54827L13.1177 6.885L12.101 8.32052L10.311 10.8469L8.23241 13.781L8.18071 13.8524L8.18718 13.8566C8.15271 13.9029 8.1204 13.9512 8.08594 13.9995H11.2071C11.4936 13.9995 11.7671 13.9218 12.0041 13.781C12.0536 13.7515 12.101 13.72 12.1462 13.6843C12.1699 13.6675 12.1936 13.6486 12.2152 13.6275C12.3078 13.5498 12.3918 13.4594 12.4629 13.3585L13.1177 12.4316L13.555 11.8116L14.0655 11.0949L14.2399 10.8469L14.4683 10.5253L15.0822 9.65936L16.0299 8.32262L17.0466 6.8871L19.2222 3.8185C19.248 3.78066 19.2696 3.74283 19.289 3.7029L19.9998 2.6499Z" fill="#FBB03B"/>
</g>
<defs>
<clipPath id="clip0_2503_33706">
<rect width="20" height="14" fill="white"/>
</clipPath>
</defs>
</svg>
