<svg width="85" height="10" viewBox="0 0 85 10" fill="none" xmlns="http://www.w3.org/2000/svg">
<path d="M2.21819 4.02488C1.71304 4.33376 1.08562 4.54933 0.335938 4.6716L0.944051 5.91034C1.82083 5.75107 2.5673 5.46954 3.18184 5.06574C3.63552 4.76812 4.00553 4.41902 4.29189 4.02005C4.30154 4.00718 4.3112 3.9927 4.32085 3.97983C4.4029 3.86239 4.47851 3.74174 4.54608 3.61465C4.55412 3.60017 4.56056 3.58569 4.5686 3.57121C4.78257 3.15776 4.92253 2.71375 4.98849 2.24077C4.98849 2.23434 4.9901 2.2279 4.9901 2.22147C5.00136 2.14103 5.0094 2.05898 5.01584 1.97694C5.01744 1.9705 5.01744 1.96246 5.01744 1.95442C5.01905 1.94155 5.01905 1.92868 5.01905 1.9142C5.03514 1.76619 5.04801 1.61658 5.06249 1.46696C5.06732 1.42192 5.07053 1.37526 5.07375 1.33022C5.09306 1.1243 5.11075 0.921597 5.12845 0.717285H0.754216V1.97694H3.67895C3.63069 2.31156 3.51808 2.63331 3.3395 2.93897C3.09819 3.35564 2.72335 3.71761 2.21819 4.02488Z" fill="#FFFFFF"/>
<path d="M5.92315 5.02218C6.42348 5.3375 7.01229 5.57559 7.68475 5.73486C7.98237 5.80565 8.28804 5.65442 8.42318 5.38094C8.60819 5.0061 8.40548 4.55404 8.00168 4.44625C7.57375 4.33364 7.1973 4.18242 6.87072 3.99258C6.35269 3.69175 5.97142 3.33782 5.72528 2.92759C5.66575 2.82785 5.61266 2.7265 5.56762 2.62354C5.51775 2.87611 5.44535 3.12386 5.35365 3.36678C5.24426 3.65474 5.10912 3.92984 4.94824 4.19046C5.2153 4.50417 5.54027 4.78087 5.92315 5.02218Z" fill="#FFFFFF"/>
<path d="M8.30462 0.717285H5.77403C5.7499 0.985947 5.72577 1.25461 5.70164 1.52488C5.68716 1.6761 5.67429 1.82732 5.6582 1.97694H8.30462V0.717285Z" fill="#FFFFFF"/>
<path d="M5.32823 5.7583H3.75808V7.58906H0V8.85515H9.11044V7.58906H5.32823V5.7583Z" fill="#FFFFFF"/>
<path d="M16.2986 3.07214C16.2986 3.10753 16.2954 3.14453 16.2938 3.18153V3.19601C16.2841 3.40193 16.2697 3.6159 16.2504 3.83469C16.2343 4.02613 16.215 4.21435 16.1925 4.39614C16.1876 4.44119 16.1828 4.48784 16.1764 4.53449C16.1699 4.58919 16.1635 4.64389 16.1571 4.69698C16.1217 4.9592 16.0798 5.22947 16.0316 5.50779C15.9544 5.94698 16.2665 6.36043 16.7105 6.40225C17.1046 6.44086 17.4602 6.17059 17.5358 5.78128C17.6162 5.36783 17.6773 4.9769 17.7224 4.60689C17.7916 4.04061 17.8318 3.56602 17.8414 3.18475C17.8527 2.80187 17.8623 2.29028 17.8688 1.65V0.797363H10.4717V2.04575H16.3195C16.3163 2.42059 16.3099 2.76326 16.2986 3.07214Z" fill="#FFFFFF"/>
<path d="M15.5307 4.43545C15.5597 4.22632 15.587 4.00753 15.608 3.78069C15.6256 3.58764 15.6385 3.40103 15.6466 3.21924L10.4551 3.38494L10.6674 4.71538L15.5307 4.43545Z" fill="#FFFFFF"/>
<path d="M14.4811 5.60693H12.9335V7.62753H9.61621V8.89361H18.7041V7.62753H14.4811V5.60693Z" fill="#FFFFFF"/>
<path d="M25.8579 6.26419C25.3431 6.10814 24.7349 6.03253 24.0351 6.03574C23.3225 6.03253 22.7063 6.10814 22.1867 6.26419C21.667 6.41863 21.2697 6.64707 20.9962 6.9463C20.7227 7.24392 20.5859 7.60267 20.5859 8.01773C20.5859 8.43278 20.7227 8.78027 20.9962 9.07468C21.2697 9.37069 21.667 9.59752 22.1867 9.75679C22.7063 9.91605 23.3225 9.99649 24.0351 9.99649C24.1349 9.99649 24.233 9.99488 24.3295 9.99166C24.6545 9.9804 24.9087 9.71174 24.9087 9.38677C24.9087 9.04411 24.6255 8.77223 24.2829 8.78188C24.2024 8.78349 24.1204 8.7851 24.0351 8.7851C23.612 8.7851 23.2613 8.75614 22.9846 8.69984C22.7079 8.64353 22.5004 8.55827 22.362 8.44565C22.2253 8.33143 22.1561 8.18825 22.1561 8.01773C22.1561 7.8295 22.2237 7.6815 22.3604 7.57049C22.4955 7.45949 22.7015 7.38066 22.9798 7.33079C23.2565 7.28253 23.6088 7.25839 24.0351 7.25839C24.4615 7.25839 24.8106 7.28253 25.0905 7.33079C25.3688 7.38066 25.5795 7.4611 25.7227 7.57532C25.8659 7.68954 25.9367 7.83755 25.9367 8.01773C25.9367 8.18825 25.8659 8.33143 25.7227 8.44565C25.6745 8.48426 25.6165 8.51966 25.5522 8.55183V9.83883C25.6568 9.8147 25.7597 9.78735 25.8579 9.75679C26.3743 9.59752 26.7733 9.37069 27.0532 9.07468C27.3347 8.78027 27.4747 8.42796 27.4747 8.01773C27.4747 7.60749 27.3347 7.24392 27.0532 6.9463C26.7733 6.64707 26.3743 6.41863 25.8579 6.26419Z" fill="#FFFFFF"/>
<path d="M21.1352 4.88837C21.1433 4.80954 21.1513 4.7275 21.1561 4.64384C21.1626 4.54732 21.1658 4.45401 21.1658 4.36392V4.17409C21.1674 4.15639 21.1658 4.1403 21.1658 4.12261V1.98297H24.3994V0.737793H19.6182V5.4273H20.4933C20.6864 5.4273 20.8714 5.4273 21.05 5.42409C21.0837 5.2616 21.1143 5.08303 21.1352 4.88837Z" fill="#FFFFFF"/>
<path d="M21.8103 4.16679C21.8168 4.32767 21.8136 4.50141 21.8039 4.68642C21.7862 4.95508 21.7524 5.19961 21.709 5.4184C22.3702 5.40553 22.9188 5.38783 23.3548 5.36209C23.8229 5.33475 24.275 5.28648 24.7126 5.21892C25.0407 5.16744 25.2708 4.86338 25.2354 4.53198C25.1984 4.17323 24.8702 3.92226 24.5131 3.97535C24.09 4.03809 23.6572 4.08314 23.2148 4.11209C22.8239 4.13783 22.3557 4.15553 21.8087 4.16679H21.8103Z" fill="#FFFFFF"/>
<path d="M27.4432 0H25.873V5.91699H27.4432V0Z" fill="#FFFFFF"/>
<path d="M43.4951 8.78369L43.6238 8.97031C43.5916 8.93813 43.5643 8.90113 43.5402 8.86091C43.5257 8.83517 43.5096 8.80943 43.4951 8.78369Z" fill="#FFFFFF"/>
<path d="M47.864 5.82303C48.3128 5.82947 48.7665 5.82786 49.2185 5.8166V2.12934H50.4364V5.76994C50.8836 5.74581 51.3341 5.71364 51.7797 5.67342V2.12934H52.6002V0.874512H47.0596V2.12934H47.864V5.82303Z" fill="#FFFFFF"/>
<path d="M51.9759 6.30832C50.5811 6.44185 49.1042 6.45633 47.7062 6.45633C47.4215 6.45793 47.1303 6.45793 46.8311 6.45793L46.9742 7.74654C48.1068 7.7385 49.1589 7.70633 50.1306 7.65163C50.9141 7.60658 51.6718 7.52775 52.4038 7.41514C52.6966 7.3701 52.909 7.11109 52.8913 6.81347C52.872 6.49011 52.5872 6.24719 52.2655 6.28097C52.1705 6.29062 52.074 6.30028 51.9775 6.30832H51.9759Z" fill="#FFFFFF"/>
<path d="M54.8446 0H53.2744V9.97426H54.8446V5.00965H56.2571V3.74357H54.8446V0Z" fill="#FFFFFF"/>
<path d="M59.1838 5.41174V5.08999V4.08935V2.87152V1.9674H64.6215V0.699707H57.5928V5.08999V5.41174V6.30782H59.1838V5.41174Z" fill="#FFFFFF"/>
<path d="M64.3851 2.87061H59.8291V4.08843H64.3851V2.87061Z" fill="#FFFFFF"/>
<path d="M59.8291 6.30767H64.0843C64.4205 6.30767 64.6924 6.03579 64.6924 5.69956C64.6924 5.36333 64.4205 5.08984 64.0843 5.08984H59.8291V6.30767Z" fill="#FFFFFF"/>
<path d="M65.6661 7.59424H56.5557V8.86033H65.6661V7.59424Z" fill="#FFFFFF"/>
<path d="M66.6729 6.3875V7.68094H67.5352C67.7716 7.68094 68.0049 7.67772 68.2366 7.67128V1.05127H66.6729V6.38589V6.3875Z" fill="#FFFFFF"/>
<path d="M69.7906 6.29203C69.4881 6.31777 69.1841 6.33869 68.88 6.35317C68.8816 6.55265 68.8832 6.75696 68.88 6.96449C68.8768 7.19776 68.8703 7.4262 68.8623 7.65143C69.2178 7.63695 69.5669 7.61604 69.9096 7.58869C70.4646 7.54364 71.0164 7.47286 71.565 7.37794C71.9061 7.31842 72.1426 7.0031 72.1007 6.65883C72.0557 6.29364 71.7163 6.03946 71.3527 6.09898C70.833 6.18425 70.3134 6.2486 69.7906 6.29203Z" fill="#FFFFFF"/>
<path d="M73.0718 3.02606H70.4736V4.28732H73.0718V10H74.6355V0H73.0718V3.02606Z" fill="#FFFFFF"/>
<path d="M78.9011 4.982C79.1167 4.82434 79.3146 4.65542 79.4948 4.47685C79.905 4.0457 80.4665 3.33303 80.814 2.3179C81.0022 1.76932 81.081 1.26739 81.1116 0.863594V0.570801H79.4449V1.27061C79.4449 1.74841 79.3146 2.21977 79.0556 2.68148C78.7966 3.14319 78.4056 3.5486 77.8828 3.90092C77.3583 4.25162 76.7196 4.49615 75.9619 4.63451L76.6247 5.93277C77.5128 5.75902 78.2705 5.4421 78.9011 4.982Z" fill="#FFFFFF"/>
<path d="M81.6623 4.99162C82.1497 5.34393 82.7144 5.61099 83.3563 5.79438C83.6845 5.88769 84.0336 5.7413 84.1912 5.43885C84.3939 5.04792 84.1961 4.56852 83.7762 4.43338C83.3563 4.29825 82.9959 4.12772 82.6726 3.91375C82.1465 3.56466 81.754 3.15925 81.4966 2.69754C81.4821 2.67341 81.4692 2.64767 81.4579 2.62354C81.2215 3.26864 80.8611 3.71427 80.6182 3.96845C80.8997 4.35133 81.2472 4.69239 81.6623 4.99162Z" fill="#FFFFFF"/>
<path d="M84.8976 7.5166H75.7871V8.79234H84.8976V7.5166Z" fill="#FFFFFF"/>
<path d="M47.7041 6.45703C47.7041 6.45703 47.7155 6.45866 47.7204 6.45866H47.7041V6.45703Z" fill="#FFFFFF"/>
<path d="M16.2936 3.18359C16.2936 3.18359 16.2936 3.19302 16.292 3.19774V3.18359H16.2936Z" fill="#FFFFFF"/>
<path d="M37.0325 9.17472H36.0641C35.9048 9.17472 35.7616 9.0798 35.7005 8.93501L35.0425 7.38579C35.0425 7.38579 35.0361 7.37774 35.0296 7.37774H31.8507C31.841 7.37774 31.8346 7.36809 31.8378 7.35844C32.047 6.86294 32.2545 6.36584 32.4636 5.87034C32.4653 5.86551 32.4701 5.8623 32.4765 5.8623H34.3765C34.3861 5.8623 34.3926 5.85264 34.3893 5.84299C33.9839 4.88579 33.5769 3.92858 33.1715 2.97298C33.1393 2.89737 33.0331 2.89737 33.001 2.97298L31.9874 5.35554C31.6544 6.13739 31.323 6.92729 30.9884 7.70914L30.509 8.84171C30.4237 9.04441 30.2258 9.17472 30.0054 9.17472H29.1174C28.7876 9.17472 28.5672 8.83527 28.7007 8.53443L31.9923 1.102C32.1725 0.693379 32.5763 0.431152 33.0219 0.431152H33.1425C33.5882 0.431152 33.9904 0.693379 34.1721 1.10039C35.3095 3.66313 36.1847 5.63546 37.3221 8.1982L37.4621 8.51674C37.5988 8.82723 37.372 9.17472 37.0325 9.17472Z" fill="#FFFFFF"/>
<path d="M41.6289 2.72362C41.2412 3.28508 40.8535 3.84653 40.4658 4.40799L37.71 0.431152H40.0362C40.5671 1.19531 41.098 1.95947 41.6289 2.72362Z" fill="#FFFFFF"/>
<path d="M31.1308 7.37744L30.9893 7.70884C31.0375 7.59784 31.081 7.48523 31.1308 7.37744Z" fill="#FFFFFF"/>
<path d="M5.015 1.95428C5.01661 1.94141 5.01822 1.92854 5.01822 1.91406C5.01822 1.92854 5.01822 1.94141 5.01661 1.95428C5.01661 1.96233 5.01661 1.97037 5.015 1.9768C5.00856 2.05885 5.00052 2.1409 4.98926 2.22133C4.9973 2.1409 5.00535 2.05885 5.01339 1.9768C5.015 1.97037 5.015 1.96233 5.015 1.95428Z" fill="#FFFFFF"/>
<path d="M43.1696 4.95979C44.2233 3.45078 45.2771 1.94016 46.3308 0.431152H44.0786C42.0435 3.34621 40.0068 6.25966 37.9717 9.17472H40.2256C40.8176 8.3269 41.4112 7.47748 42.0032 6.62967L43.493 8.77896L43.4962 8.78379L43.6249 8.97041C43.7439 9.09911 43.9129 9.17472 44.0914 9.17472H45.2208C45.5892 9.17472 45.8048 8.76127 45.594 8.45882C44.7848 7.29891 43.9772 6.13418 43.1696 4.95979Z" fill="#FFFFFF"/>
</svg>
